# xmcd
#
# Track frame offsets:
#	150
#	24000
#	53100
#	79200
#	131700
#	159150
#	187350
#	231900
#
# Disc length: 3504 seconds
#
# Revision: 0
# Processed by: cddbd v1.5.1PL2 Copyright (c) Steve Scherf et al.
# Submitted via: dBpowerAMP V4.0
#
DISCID=610dae08
DTITLE=Pandit Jasraj - The Best of Pandit Jasraj
DYEAR=1900
DGENRE=
TTITLE0=Raga Bairagi Bhairav 
TTITLE1=Raga Basant Mukhari 
TTITLE2=Raga Bhatiyar
TTITLE3=Raga Madhumad Sarang
TTITLE4=Raga Charukeshi
TTITLE5=Raga Darbari Kanhada
TTITLE6=Raga Shankara
TTITLE7=Raga Marwa
EXTD=
EXTT0=
EXTT1=
EXTT2=
EXTT3=
EXTT4=
EXTT5=
EXTT6=
EXTT7=
PLAYORDER=
